# xmcd
#
# Track frame offsets:
#	150
#	18806
#	43886
#	51386
#	68203
#	79864
#	88793
#	111847
#	117971
#	139828
#	149970
#	174810
#	184422
#	192040
#	199641
#	211313
#	220216
#	226474
#	236725
#	246354
#
# Disc length: 3384 seconds
#
# Revision: 1
# Processed by: cddbd v1.5.2PL0 Copyright (c) Steve Scherf et al.
# Submitted via: EasyCDDAExtractor 16.0.6.1
#
DISCID=300d3614
DTITLE=Χορωδία Σ. Λάμπρου - Η 25η Μαρτίου στα σχολεία πατρίδας
DYEAR=2004
DGENRE=Ποικίλη
TTITLE0=Χορωδία Σ. Λάμπρου - Μεσολόγγι [Σπύρος Λάμπρου-Α. Ντζούφρας]
TTITLE1=Χορωδία Σ. Λάμπρου - Όλη η δόξα [Ι. Σακελλαρίδης-Γ. Γεωργόπουλος]
TTITLE2=Χορωδία Σ. Λάμπρου - Στον θάνατο του λόρδου Μπαΐρον [Νικ. Μάντζαρος-Δι
TTITLE2=ον. Σολωμός]
TTITLE3=Χορωδία Σ. Λάμπρου - Μπουμπουλίνα-Μαντώ Μαυρογένους [Σ. Λάμπρου-Αγγελι
TTITLE3=κή Καψάσκη]
TTITLE4=Χορωδία Σ. Λάμπρου - Ξύπνα ραγιά [δημοτικό]
TTITLE5=Χορωδία Σ. Λάμπρου - Το Σούλι [δημοτικό]
TTITLE6=Χορωδία Σ. Λάμπρου - Αθανάσιος Διάκος [Σ. Λάμπρου-Αγγελική Καψάσκη]
TTITLE7=Χορωδία Σ. Λάμπρου - Απ. από ''Ύμνον εις την Ελευθερίαν [87,88,96,97,7
TTITLE7=8, Ν.Μάντζαρος-Δ.Σολωμός]
TTITLE8=Χορωδία Σ. Λάμπρου - Κρυφό σχολειό [Σ. Λάμπρου-Αγγελική Καψάσκη]
TTITLE9=Χορωδία Σ. Λάμπρου - Είσαι το φλάμπουρο [δημοτικό]
TTITLE10=Χορωδία Σ. Λάμπρου - 25η Μαρτίου [Σ. Λάμπρου-Αγγελική Καψάσκη]
TTITLE11=Χορωδία Σ. Λάμπρου - Για μάς παιχνίδι ο πόλεμος [δημοτικό, δισκ. Α. Κ
TTITLE11=αψάσκη]
TTITLE12=Χορωδία Σ. Λάμπρου - Εθνικός Ύμνος [στροφές 1-4, Ν. Μάντζαρος-Δ. Σολω
TTITLE12=μός]
TTITLE13=Άνευ ερμηνευτού - Στον θάνατο του λόρδου Μπαΐρον [Νικόλαος Μάντζαρος,
TTITLE13=μόνο πιάνο]
TTITLE14=Άνευ ερμηνευτού - Ξύπνα ραγιά [μόνο πιάνο, Γιώργος Νιάρχος]
TTITLE15=Άνευ ερμηνευτού - Το Σούλι [μόνο πιάνο, Γιώργος Νιάρχος]
TTITLE16=Άνευ ερμηνευτού - Απόσπ. από τον ''Ύμνον εις την Ελευθερίαν [μόνο πιά
TTITLE16=νο, Γιώργος Νιάρχος]
TTITLE17=Άνευ ερμηνευτού - Είσαι το φλάμπουρο [μόνο πιάνο, Γιώργος Νιάρχος]
TTITLE18=Άνευ ερμηνευτού - Για μάς παιχνίδι ο πόλεμος [μόνο πιάνο, Γιώργος Νιά
TTITLE18=ρχος]
TTITLE19=Άνευ ερμηνευτού - Εθνικός Ύμνος [μόνο πιάνο, Γιώργος Νιάρχος]
EXTD=
EXTT0=
EXTT1=
EXTT2=
EXTT3=
EXTT4=
EXTT5=
EXTT6=
EXTT7=
EXTT8=
EXTT9=
EXTT10=
EXTT11=
EXTT12=
EXTT13=
EXTT14=
EXTT15=
EXTT16=
EXTT17=
EXTT18=
EXTT19=
PLAYORDER=
